#define checkboard-8x8_width 8
#define checkboard-8x8_height 8
static unsigned char checkboard-8x8_bits[] = {
   0xc3, 0xc3, 0x3c, 0x3c, 0x3c, 0x3c, 0xc3, 0xc3};
