#define checkboard-16x16_width 16
#define checkboard-16x16_height 16
static unsigned char checkboard-16x16_bits[] = {
   0x0f, 0xf0, 0x0f, 0xf0, 0x0f, 0xf0, 0x0f, 0xf0, 0xf0, 0x0f, 0xf0, 0x0f,
   0xf0, 0x0f, 0xf0, 0x0f, 0xf0, 0x0f, 0xf0, 0x0f, 0xf0, 0x0f, 0xf0, 0x0f,
   0x0f, 0xf0, 0x0f, 0xf0, 0x0f, 0xf0, 0x0f, 0xf0};
